<svg id="Cat_3" data-name="Cat 3" xmlns="http://www.w3.org/2000/svg" xmlns:xlink="http://www.w3.org/1999/xlink" width="149" height="151" viewBox="0 0 149 151">
  <metadata><?xpacket begin="﻿" id="W5M0MpCehiHzreSzNTczkc9d"?>
<x:xmpmeta xmlns:x="adobe:ns:meta/" x:xmptk="Adobe XMP Core 5.6-c138 79.159824, 2016/09/14-01:09:01        ">
   <rdf:RDF xmlns:rdf="http://www.w3.org/1999/02/22-rdf-syntax-ns#">
      <rdf:Description rdf:about=""/>
   </rdf:RDF>
</x:xmpmeta>
                                                                                                    
                                                                                                    
                                                                                                    
                                                                                                    
                                                                                                    
                                                                                                    
                                                                                                    
                                                                                                    
                                                                                                    
                                                                                                    
                                                                                                    
                                                                                                    
                                                                                                    
                                                                                                    
                                                                                                    
                                                                                                    
                                                                                                    
                                                                                                    
                                                                                                    
                                                                                                    
                           
<?xpacket end="w"?></metadata>
<defs>
    <style>
      .cls-1 {
        fill: #2361f0;
        filter: url(#filter);
      }

      .cls-2 {
        fill: #edf3fd;
        fill-rule: evenodd;
      }
    </style>
    <filter id="filter" x="0" y="0" width="149" height="151" filterUnits="userSpaceOnUse">
      <feOffset result="offset" dy="4" in="SourceAlpha"/>
      <feGaussianBlur result="blur" stdDeviation="1.732"/>
      <feFlood result="flood" flood-color="#060606" flood-opacity="0.08"/>
      <feComposite result="composite" operator="in" in2="blur"/>
      <feBlend result="blend" in="SourceGraphic"/>
    </filter>
  </defs>
  <circle class="cls-1" cx="74" cy="72" r="72"/>
  <path class="cls-2" d="M1002.32,1405.28c0-4.14-3.849-7.59-8.552-7.68h-0.1c-1.554-.03-3.191-0.06-4.866-0.06-11.688,0-18.87,1.83-21.112,6.12-1.362,2.61-.878,5.84-0.426,8.62,0.479,2.95.741,6.33,2.53,8.82,2.935,4.08,9.092,4.36,13.588,4.36,18.751,0,18.831-8.13,18.921-15.98,0-.54.02-4.2,0.02-4.2h0Zm-55.077,5.35c0.29-2.3.437-4.85-.669-6.97-2.243-4.29-9.424-6.12-21.113-6.12-1.674,0-3.312.03-4.867,0.06h-0.1c-4.7.09-8.551,3.54-8.551,7.68,0,0,.016,3.66.022,4.2,0.081,7.85.165,15.98,18.918,15.98,3.484,0,7.288-.21,10.474-1.8,3.316-1.65,4.568-4.92,5.226-8.37,0.3-1.56.471-3.16,0.661-4.66h0Zm60.037-5.31c-1.47,6.16,4.72,24.67-24.167,24.67q-1.577,0-3.152-.09c-4.353-.28-9.109-1.13-12.558-4.05a13.9,13.9,0,0,1-4.272-7.39c-0.594-2.33-.743-4.82-1.578-7.09-0.956-2.59-3.222-3.58-5.907-3.03-2.078.42-3.024,2.17-3.534,4.1-0.645,2.44-.857,4.97-1.638,7.38a12.884,12.884,0,0,1-5.269,7.05c-4.183,2.66-9.507,3.12-14.323,3.12-28.887,0-22.7-18.51-24.169-24.67a10,10,0,0,0-3.737-6.14v-5.31a145.175,145.175,0,0,1,15.729-.86c9.155,0,20.21.92,28.813,4.49,3.951,1.64,6.665,2.44,9.376,2.44,2.762,0,5.521-.83,9.582-2.44,8.775-3.47,20.144-4.35,29.426-4.35,6.778,0,12.448.47,15.168,0.74v5.25a10.015,10.015,0,0,0-3.79,6.18h0Zm-62.378,5.42c0.251-1.99.378-4.2-.58-6.03-1.944-3.72-8.167-5.31-18.3-5.31-1.45,0-2.87.03-4.217,0.06h-0.088c-4.076.07-7.41,3.06-7.41,6.65,0,0,.014,3.17.02,3.64,0.069,6.8.142,13.84,16.393,13.84,3.019,0,6.315-.18,9.077-1.55,2.872-1.43,3.958-4.26,4.528-7.26,0.256-1.35.408-2.73,0.573-4.04h0Zm24.449,0c0.164,1.31.317,2.69,0.573,4.04,0.57,3,1.655,5.83,4.528,7.26,2.762,1.37,6.058,1.55,9.077,1.55,16.251,0,16.324-7.04,16.393-13.84,0.006-.47.019-3.64,0.019-3.64,0-3.59-3.334-6.58-7.409-6.65h-0.088c-1.348-.03-2.767-0.06-4.217-0.06-10.129,0-16.353,1.59-18.3,5.31-0.958,1.83-.83,4.04-0.579,6.03h0Z" transform="translate(-883 -1337)"/>
</svg>
