<svg id="Cat_2" data-name="Cat 2" xmlns="http://www.w3.org/2000/svg" xmlns:xlink="http://www.w3.org/1999/xlink" width="149" height="151" viewBox="0 0 149 151">
  <metadata><?xpacket begin="﻿" id="W5M0MpCehiHzreSzNTczkc9d"?>
<x:xmpmeta xmlns:x="adobe:ns:meta/" x:xmptk="Adobe XMP Core 5.6-c138 79.159824, 2016/09/14-01:09:01        ">
   <rdf:RDF xmlns:rdf="http://www.w3.org/1999/02/22-rdf-syntax-ns#">
      <rdf:Description rdf:about=""/>
   </rdf:RDF>
</x:xmpmeta>
                                                                                                    
                                                                                                    
                                                                                                    
                                                                                                    
                                                                                                    
                                                                                                    
                                                                                                    
                                                                                                    
                                                                                                    
                                                                                                    
                                                                                                    
                                                                                                    
                                                                                                    
                                                                                                    
                                                                                                    
                                                                                                    
                                                                                                    
                                                                                                    
                                                                                                    
                                                                                                    
                           
<?xpacket end="w"?></metadata>
<defs>
    <style>
      .cls-1 {
        fill: #2361f0;
        filter: url(#filter);
      }

      .cls-2 {
        fill: #edf3fd;
        fill-rule: evenodd;
      }
    </style>
    <filter id="filter" x="0" y="0" width="149" height="151" filterUnits="userSpaceOnUse">
      <feOffset result="offset" dy="4" in="SourceAlpha"/>
      <feGaussianBlur result="blur" stdDeviation="1.732"/>
      <feFlood result="flood" flood-color="#060606" flood-opacity="0.08"/>
      <feComposite result="composite" operator="in" in2="blur"/>
      <feBlend result="blend" in="SourceGraphic"/>
    </filter>
  </defs>
  <circle class="cls-1" cx="74" cy="72" r="72"/>
  <path class="cls-2" d="M692.972,1405.33c-0.381-1.31-2.333-1.53-3.313-1.64a6.348,6.348,0,0,1-3.956-3.07c-3.74-5.98-8.269-8.73-15.631-9.52-8.6-.91-17.233,4.09-18.464,5.05-0.748.58-2.308,0.17-2.894-.05a29.147,29.147,0,0,0-17.472.02c-0.5.19-2.1,0.6-2.851,0.02-1.247-.95-9.946-5.94-18.461-5.04-7.372.79-11.9,3.54-15.651,9.56a6.338,6.338,0,0,1-3.929,3.09c-1.961.14-3.048,0.67-3.322,1.64l-0.029.1,0.188,2.56a1.738,1.738,0,0,0,1.6,1.82,2.218,2.218,0,0,0,.462-0.02,7.036,7.036,0,0,1,1.89,0,2.1,2.1,0,0,1,1.857,1.72c0.039,0.15.083,0.37,0.139,0.65,2.078,10.24,7.885,16.14,17.261,17.55a21.027,21.027,0,0,0,3.026.23c5.322,0,9.985-2.25,13.892-6.71a37.121,37.121,0,0,0,6.787-12.33,35.53,35.53,0,0,0,1.242-4.67l0.086-.44-0.409-.2a2.211,2.211,0,0,1-1.139-2.66c0.493-1.86,3.937-2.4,6.124-2.32h0.051c2.1-.09,5.642.44,6.2,2.28a2.206,2.206,0,0,1-1.145,2.64l-0.41.2,0.087,0.44a35.374,35.374,0,0,0,1.242,4.67,37.073,37.073,0,0,0,6.787,12.31c4.63,5.28,10.32,7.47,16.916,6.5,9.343-1.37,15.14-7.26,17.229-17.51,0.059-.3.106-0.53,0.153-0.71a2.08,2.08,0,0,1,1.823-1.64,7.157,7.157,0,0,1,1.791-.01,1.7,1.7,0,0,0,1.284-.19,1.727,1.727,0,0,0,.854-1.61l0.137-2.62Zm-11.58,10.42-0.2.58a16.241,16.241,0,0,1-8.841,9.08,14.017,14.017,0,0,1-11.652-.31,17.513,17.513,0,0,1-8.748-11.04c-1.248-4.45-.766-8.85,1.321-12.09,3.708-5.74,11.863-6.3,14.864-6.3,0.7,0,1.116.03,1.137,0.03,5.235,0.43,9.006,2.33,11.208,5.66C682.891,1405,683.231,1410.38,681.392,1415.75Zm-53.254-1.83a17.654,17.654,0,0,1-8.768,11.13,13.913,13.913,0,0,1-11.606.37,16.29,16.29,0,0,1-9.094-9.71c-1.859-5.48-1.533-10.72.9-14.38,2.194-3.31,5.965-5.2,11.21-5.63h0c0.023,0,.488-0.03,1.256-0.03,3.095,0,11.1.57,14.768,6.25A14.851,14.851,0,0,1,628.138,1413.92Z" transform="translate(-566 -1337)"/>
</svg>
