<svg xmlns="http://www.w3.org/2000/svg" width="24" height="25" viewBox="0 0 24 25">
  <path id="lupa" fill="#2361f0" fill-rule="evenodd" d="M1181.26,87.678l-5.31-5.4a10.075,10.075,0,0,0-1.3-12.392,9.648,9.648,0,0,0-13.79,0,10.05,10.05,0,0,0,0,14.023,9.657,9.657,0,0,0,5.48,2.806,9.506,9.506,0,0,0,5.92-1.022l5.48,5.568a2.461,2.461,0,0,0,3.52,0A2.568,2.568,0,0,0,1181.26,87.678Zm-19.29-4.9a8.421,8.421,0,0,1,0-11.775,8.1,8.1,0,0,1,11.58,0,8.473,8.473,0,0,1,.76,10.881,0.8,0.8,0,0,0,.07,1.04l5.77,5.873a0.957,0.957,0,0,1,0,1.333,0.94,0.94,0,0,1-1.31,0l-5.89-5.995a0.784,0.784,0,0,0-.55-0.233,0.764,0.764,0,0,0-.41.115A8.059,8.059,0,0,1,1161.97,82.783Zm12.97-5.887a7.3,7.3,0,0,0-2.1-5.169h0a7.1,7.1,0,0,0-10.16,0,7.393,7.393,0,0,0,0,10.338,7.1,7.1,0,0,0,10.16,0A7.3,7.3,0,0,0,1174.94,76.9Zm-3.21,4.044a5.559,5.559,0,0,1-7.95,0,5.8,5.8,0,0,1,0-8.089,5.559,5.559,0,0,1,7.95,0A5.782,5.782,0,0,1,1171.73,80.94Z" transform="translate(-1158 -67)"/>
</svg>