<?xml version="1.0" encoding="utf-8"?>
<!-- Generator: Adobe Illustrator 21.0.0, SVG Export Plug-In . SVG Version: 6.00 Build 0)  -->
<svg version="1.1" id="Capa_1" xmlns="http://www.w3.org/2000/svg" xmlns:xlink="http://www.w3.org/1999/xlink" x="0px" y="0px"
	 viewBox="0 0 73.9 22.4" style="enable-background:new 0 0 73.9 22.4;" xml:space="preserve">
<style type="text/css">
	.st0{fill:#2B63DF;}
	.st1{fill:none;stroke:#2B63DF;stroke-miterlimit:10;}
</style>
<title>pago_seguro_1</title>
<g>
	<g>
		<g>
			<path class="st0" d="M30.4,3.6c0,1.8-1.4,3-3.6,3h-1.9V9h-1.6V0.6h3.5C29,0.6,30.4,1.7,30.4,3.6z M28.8,3.6
				c0-1.1-0.7-1.7-2.1-1.7h-1.8v3.3h1.8C28.1,5.3,28.8,4.6,28.8,3.6z"/>
			<path class="st0" d="M37,7.1h-4.2L32,9h-1.6l3.8-8.4h1.5L39.5,9h-1.6L37,7.1z M36.5,5.8l-1.6-3.7l-1.6,3.7H36.5z"/>
			<path class="st0" d="M46.2,4.7h1.5v3.3c-0.9,0.7-2.1,1.1-3.3,1.1c-2.6,0-4.5-1.8-4.5-4.3c0-2.5,1.9-4.3,4.5-4.3
				c1.4,0,2.6,0.5,3.4,1.4l-1,1c-0.7-0.7-1.4-1-2.3-1c-1.8,0-3,1.2-3,3c0,1.7,1.3,3,3,3c0.6,0,1.2-0.1,1.7-0.4V4.7z"/>
			<path class="st0" d="M49.1,4.8c0-2.5,1.9-4.3,4.5-4.3s4.5,1.8,4.5,4.3c0,2.5-1.9,4.3-4.5,4.3S49.1,7.3,49.1,4.8z M56.6,4.8
				c0-1.7-1.3-3-3-3c-1.7,0-3,1.2-3,3s1.3,3,3,3C55.3,7.8,56.6,6.5,56.6,4.8z"/>
		</g>
	</g>
	<g>
		<g>
			<path class="st0" d="M22.5,20.2l0.3-0.5c0.6,0.6,1.6,1.1,2.8,1.1c1.7,0,2.4-0.7,2.4-1.6c0-2.5-5.2-1-5.2-4.1c0-1.2,0.9-2.2,3-2.2
				c0.9,0,1.9,0.3,2.5,0.8L28,14c-0.7-0.5-1.5-0.7-2.3-0.7c-1.6,0-2.4,0.8-2.4,1.7c0,2.5,5.2,1,5.2,4.1c0,1.2-0.9,2.2-3,2.2
				C24.3,21.3,23.1,20.8,22.5,20.2z"/>
			<path class="st0" d="M36.4,20.7v0.6h-5.8v-8.4h5.6v0.6h-5v3.3h4.5v0.5h-4.5v3.4H36.4z"/>
			<path class="st0" d="M44.6,17.1h0.6v3.1c-0.8,0.7-1.8,1.1-3,1.1c-2.5,0-4.4-1.8-4.4-4.3c0-2.4,1.9-4.3,4.4-4.3
				c1.2,0,2.3,0.4,3,1.2l-0.4,0.4c-0.7-0.7-1.6-1-2.6-1c-2.2,0-3.8,1.6-3.8,3.7c0,2.1,1.6,3.7,3.8,3.7c0.9,0,1.7-0.2,2.4-0.8V17.1z"
				/>
			<path class="st0" d="M47.8,17.7v-4.8h0.6v4.8c0,2.1,1,3.1,2.8,3.1s2.7-1,2.7-3.1v-4.8h0.6v4.8c0,2.4-1.3,3.6-3.4,3.6
				S47.8,20.1,47.8,17.7z"/>
			<path class="st0" d="M63.2,21.3l-2-2.8c-0.3,0-0.5,0.1-0.8,0.1H58v2.7h-0.6v-8.4h3c2.1,0,3.4,1.1,3.4,2.8c0,1.3-0.7,2.3-2,2.6
				l2.1,2.9H63.2z M60.4,18c1.8,0,2.8-0.8,2.8-2.3c0-1.5-1-2.3-2.8-2.3H58V18H60.4z"/>
			<path class="st0" d="M65.3,17.1c0-2.4,1.9-4.3,4.4-4.3c2.5,0,4.4,1.8,4.4,4.3c0,2.4-1.9,4.3-4.4,4.3
				C67.1,21.3,65.3,19.5,65.3,17.1z M73.4,17.1c0-2.1-1.6-3.7-3.7-3.7c-2.1,0-3.8,1.6-3.8,3.7c0,2.1,1.6,3.7,3.8,3.7
				C71.8,20.7,73.4,19.2,73.4,17.1z"/>
		</g>
	</g>
	<path class="st1" d="M16.5,21.7H2.6c-1.1,0-1.9-0.9-1.9-1.9V9.7c0-1.1,0.9-1.9,1.9-1.9h0.4V7.4h0c0-3.6,2.9-6.6,6.6-6.6
		c3.6,0,6.6,2.9,6.6,6.6c0,0.1,0,0.3,0,0.4h0.4c1.1,0,1.9,0.9,1.9,1.9v10.1C18.4,20.8,17.5,21.7,16.5,21.7z M9.5,3.2
		c-2.3,0-4.3,1.9-4.3,4.3h0v0.4h8.5v0c0-0.1,0-0.2,0-0.4C13.8,5.1,11.9,3.2,9.5,3.2z"/>
	<path class="st0" d="M9.7,17.9H9.3c-0.5,0-1-0.4-1-1v-2.7c0-0.5,0.4-1,1-1h0.4c0.5,0,1,0.4,1,1v2.7C10.7,17.5,10.2,17.9,9.7,17.9z"
		/>
</g>
</svg>
