<svg xmlns="http://www.w3.org/2000/svg" width="10" height="5" viewBox="0 0 10 5">
  <metadata><?xpacket begin="﻿" id="W5M0MpCehiHzreSzNTczkc9d"?>
<x:xmpmeta xmlns:x="adobe:ns:meta/" x:xmptk="Adobe XMP Core 5.6-c138 79.159824, 2016/09/14-01:09:01        ">
   <rdf:RDF xmlns:rdf="http://www.w3.org/1999/02/22-rdf-syntax-ns#">
      <rdf:Description rdf:about=""/>
   </rdf:RDF>
</x:xmpmeta>
                                                                                                    
                                                                                                    
                                                                                                    
                                                                                                    
                                                                                                    
                                                                                                    
                                                                                                    
                                                                                                    
                                                                                                    
                                                                                                    
                                                                                                    
                                                                                                    
                                                                                                    
                                                                                                    
                                                                                                    
                                                                                                    
                                                                                                    
                                                                                                    
                                                                                                    
                                                                                                    
                           
<?xpacket end="w"?></metadata>
<defs>
    <style>
      .cls-1 {
        fill: #38d7cb;
        fill-rule: evenodd;
      }
    </style>
  </defs>
  <path id="Shape_23_copy_2" data-name="Shape 23 copy 2" class="cls-1" d="M831.089,85a1,1,0,0,0,.533-0.212l4.022-3.205A0.876,0.876,0,0,0,836,80.97a0.851,0.851,0,0,0-.226-0.662A0.987,0.987,0,0,0,835.1,80a1,1,0,0,0-.7.232l-3.4,2.71-3.4-2.71A1,1,0,0,0,826.9,80a0.987,0.987,0,0,0-.668.31,0.851,0.851,0,0,0-.226.662,0.873,0.873,0,0,0,.354.612l4.022,3.205A1.01,1.01,0,0,0,831.089,85Z" transform="translate(-826 -80)"/>
</svg>
